<svg width="244" height="72" fill="none" xmlns="http://www.w3.org/2000/svg"><path d="M234.962 72H9.038C3.972 72 0 68.044 0 62.999V9c0-5.044 3.972-9 9.038-9h225.924C240.028 0 244 3.956 244 9.001V63.01c0 5.035-3.972 8.991-9.038 8.991z" fill="#000"/><path d="M123.083 39.401c-4.333 0-7.769 3.25-7.769 7.77a7.715 7.715 0 007.769 7.768c4.334 0 7.769-3.25 7.769-7.769 0-4.694-3.426-7.769-7.769-7.769zm0 12.288c-2.352 0-4.333-1.99-4.333-4.694 0-2.704 1.991-4.695 4.333-4.695 2.343 0 4.334 1.806 4.334 4.695.009 2.713-1.982 4.694-4.334 4.694zm-16.807-12.288c-4.333 0-7.769 3.25-7.769 7.77a7.715 7.715 0 007.769 7.768c4.334 0 7.769-3.25 7.769-7.769 0-4.694-3.435-7.769-7.769-7.769zm0 12.288c-2.352 0-4.333-1.99-4.333-4.694 0-2.704 1.991-4.695 4.333-4.695 2.353 0 4.334 1.806 4.334 4.695 0 2.713-1.981 4.694-4.334 4.694zM86.21 41.754v3.25h7.779c-.186 1.805-.908 3.25-1.806 4.157-1.083 1.084-2.889 2.352-5.963 2.352-4.88 0-8.492-3.796-8.492-8.676 0-4.88 3.797-8.677 8.492-8.677 2.528 0 4.519 1.084 5.963 2.352l2.352-2.352c-1.99-1.805-4.519-3.25-8.13-3.25-6.51 0-12.112 5.427-12.112 11.927s5.602 11.927 12.112 11.927c3.611 0 6.149-1.084 8.316-3.436 2.166-2.167 2.889-5.241 2.889-7.593 0-.722 0-1.445-.186-1.991l-11.214.01zm82.062 2.527c-.722-1.805-2.528-4.88-6.51-4.88-3.972 0-7.232 3.075-7.232 7.77 0 4.333 3.25 7.768 7.593 7.768 3.436 0 5.602-2.166 6.325-3.435l-2.528-1.806c-.908 1.269-1.991 2.167-3.797 2.167-1.805 0-2.889-.722-3.796-2.352l10.306-4.334-.361-.898zM157.79 46.81c0-2.889 2.352-4.519 3.972-4.519 1.269 0 2.528.723 2.889 1.63l-6.861 2.89zm-8.501 7.418h3.435V31.632h-3.435v22.595zm-5.417-13.196c-.908-.907-2.352-1.805-4.158-1.805-3.796 0-7.408 3.435-7.408 7.769 0 4.333 3.436 7.593 7.408 7.593 1.806 0 3.25-.908 3.973-1.806h.185v1.084c0 2.889-1.63 4.519-4.158 4.519-1.991 0-3.435-1.445-3.796-2.714l-2.889 1.27c.907 1.99 3.074 4.518 6.871 4.518 3.972 0 7.232-2.352 7.232-7.954V39.763h-3.25l-.01 1.268zM139.89 51.69c-2.352 0-4.334-1.99-4.334-4.694 0-2.704 1.992-4.695 4.334-4.695 2.342 0 4.158 1.991 4.158 4.695 0 2.703-1.806 4.694-4.158 4.694zm44.105-20.057h-8.13v22.595h3.436v-8.491h4.694c3.797 0 7.408-2.714 7.408-7.047 0-4.334-3.611-7.057-7.408-7.057zm.176 10.844h-4.88v-7.77h4.88c2.528 0 3.972 2.167 3.972 3.797-.175 1.982-1.62 3.973-3.972 3.973zm20.789-3.25c-2.528 0-5.066 1.083-5.964 3.435l3.075 1.269c.722-1.269 1.805-1.63 3.074-1.63 1.806 0 3.436 1.083 3.611 2.889v.185c-.546-.36-1.991-.907-3.435-.907-3.25 0-6.51 1.805-6.51 5.065 0 3.075 2.713 5.066 5.602 5.066 2.352 0 3.436-1.084 4.334-2.167h.185v1.806h3.25V45.56c-.351-3.992-3.426-6.334-7.222-6.334zm-.361 12.463c-1.084 0-2.714-.546-2.714-1.99 0-1.806 1.991-2.353 3.612-2.353 1.444 0 2.166.361 3.074.722-.361 2.177-2.167 3.621-3.972 3.621zm18.973-11.926l-3.796 9.76h-.186l-3.972-9.76h-3.611l5.963 13.732-3.436 7.593h3.436l9.213-21.325h-3.611zm-30.363 14.464h3.435V31.632h-3.435v22.595zM87.666 24.092h-1.12V22h-6.122v2.098h-1.125l-.006-3.018h.697c.367-.414.658-.969.873-1.664.219-.7.356-1.465.41-2.297l.188-3.65h5.103v7.611h1.114l-.012 3.012zm-6.393-3.012h4.16v-6.685h-2.888l-.123 2.507c-.05.98-.182 1.817-.393 2.508-.207.692-.459 1.248-.756 1.67zm15.163-3.07c0 .836-.141 1.566-.422 2.191-.282.621-.68 1.096-1.196 1.424-.515.328-1.117.492-1.804.492-.672 0-1.268-.164-1.787-.492-.52-.332-.924-.803-1.213-1.412-.285-.613-.432-1.322-.44-2.127v-.615c0-.82.143-1.545.428-2.174.285-.629.688-1.11 1.207-1.442.523-.335 1.121-.503 1.793-.503.684 0 1.285.166 1.805.498.523.328.925.806 1.207 1.435.28.625.422 1.354.422 2.186v.539zm-1.12-.551c0-1.012-.203-1.787-.609-2.326-.406-.543-.975-.815-1.705-.815-.711 0-1.271.272-1.682.815-.406.539-.615 1.289-.627 2.25v.627c0 .98.205 1.752.616 2.314.414.559.982.838 1.705.838.726 0 1.289-.264 1.687-.79.399-.532.604-1.292.615-2.28v-.633zm10.082 1.834c-.105.902-.439 1.6-1.002 2.092-.558.488-1.302.732-2.232.732-1.008 0-1.816-.361-2.426-1.084-.605-.723-.908-1.69-.908-2.9v-.82c0-.793.14-1.49.422-2.092.285-.602.688-1.063 1.207-1.383.52-.324 1.121-.486 1.805-.486.906 0 1.632.253 2.179.761.547.504.866 1.203.955 2.098h-1.13c-.098-.68-.311-1.172-.639-1.477-.324-.304-.779-.457-1.365-.457-.719 0-1.284.266-1.694.797-.406.531-.61 1.287-.61 2.268v.826c0 .926.194 1.662.581 2.209.387.547.928.82 1.623.82.625 0 1.104-.14 1.436-.422.336-.285.558-.779.668-1.482h1.13zm8.26-4.898h-2.742V22h-1.119v-7.605h-2.736v-.926h6.597v.926zm5.196 4.025l1.962-4.951h1.307l-3.018 7.107c-.203.453-.392.776-.568.967a1.825 1.825 0 01-.621.434c-.234.097-.529.146-.885.146-.308 0-.506-.018-.592-.053l.036-.89.533.023c.41 0 .715-.197.914-.592l.146-.304.223-.522-2.906-6.316h1.26l2.209 4.95zM130.986 22h-1.131v-7.605h-4.207V22h-1.125v-8.531h6.463V22zm9.608 0h-1.131v-3.943h-4.301V22h-1.125v-8.531h1.125v3.668h4.301v-3.668h1.131V22zm9.56-3.99c0 .836-.14 1.566-.422 2.191-.281.621-.679 1.096-1.195 1.424-.516.328-1.117.492-1.805.492-.671 0-1.267-.164-1.787-.492-.519-.332-.924-.803-1.213-1.412-.285-.613-.431-1.322-.439-2.127v-.615c0-.82.143-1.545.428-2.174.285-.629.687-1.11 1.207-1.442.523-.335 1.121-.503 1.793-.503.683 0 1.285.166 1.804.498.524.328.926.806 1.207 1.435.282.625.422 1.354.422 2.186v.539zm-1.119-.551c0-1.012-.203-1.787-.609-2.326-.406-.543-.975-.815-1.705-.815-.711 0-1.272.272-1.682.815-.406.539-.615 1.289-.627 2.25v.627c0 .98.205 1.752.615 2.314.414.559.983.838 1.705.838.727 0 1.289-.264 1.688-.79.398-.532.603-1.292.615-2.28v-.633zM156.818 22v-8.531h2.789c.926 0 1.622.191 2.086.574.469.383.703.95.703 1.7 0 .398-.113.751-.339 1.06a2.22 2.22 0 01-.926.709 1.96 1.96 0 011.09.738c.269.36.404.79.404 1.29 0 .765-.248 1.366-.744 1.804-.496.437-1.197.656-2.104.656h-2.959zm1.125-3.99v3.07h1.858c.523 0 .935-.135 1.236-.404.305-.274.457-.649.457-1.125 0-1.028-.558-1.541-1.676-1.541h-1.875zm0-.903h1.7c.492 0 .884-.123 1.177-.369.297-.246.446-.58.446-1.002 0-.468-.137-.808-.411-1.02-.273-.214-.689-.321-1.248-.321h-1.664v2.712z" fill="#fff"/><path d="M18.797 13.557c-.546.546-.722 1.444-.722 2.527v39.948c0 1.084.361 1.991.908 2.528l.185.185 22.41-22.408v-.362l-22.78-22.418z" fill="url(#paint0_linear)"/><path d="M48.8 43.919l-7.408-7.408v-.547l7.407-7.407.186.185 8.852 5.065c2.528 1.445 2.528 3.797 0 5.242l-9.038 4.87z" fill="url(#paint1_linear)"/><path d="M48.985 43.736l-7.594-7.593-22.594 22.604c.908.907 2.167.907 3.796.185l26.392-15.196z" fill="url(#paint2_linear)"/><path d="M48.985 28.56L22.593 13.557c-1.63-.908-2.888-.722-3.796.185l22.594 22.41 7.594-7.594z" fill="url(#paint3_linear)"/><path opacity=".2" d="M48.8 43.56L22.593 58.377c-1.445.908-2.714.723-3.612 0l-.185.186.185.185c.908.722 2.167.908 3.611 0L48.8 43.56z" fill="#000"/><path opacity=".12" d="M18.797 58.374c-.546-.547-.722-1.445-.722-2.528v.186c0 1.083.361 1.99.908 2.527v-.185h-.186zm39.04-19.881L48.8 43.558l.185.186 8.852-5.066c1.27-.722 1.806-1.63 1.806-2.528 0 .898-.722 1.62-1.806 2.343z" fill="#000"/><path opacity=".25" d="M22.595 13.733l35.243 20.066c1.084.722 1.806 1.445 1.806 2.352 0-.907-.547-1.805-1.806-2.528L22.595 13.558c-2.528-1.444-4.519-.361-4.519 2.528v.185c0-2.713 1.991-3.982 4.52-2.537z" fill="#fff"/><defs><linearGradient id="paint0_linear" x1="39.391" y1="15.733" x2="9.057" y2="46.065" gradientUnits="userSpaceOnUse"><stop stop-color="#00A0FF"/><stop offset=".007" stop-color="#00A1FF"/><stop offset=".26" stop-color="#00BEFF"/><stop offset=".512" stop-color="#00D2FF"/><stop offset=".76" stop-color="#00DFFF"/><stop offset="1" stop-color="#00E3FF"/></linearGradient><linearGradient id="paint1_linear" x1="61.15" y1="36.236" x2="17.416" y2="36.236" gradientUnits="userSpaceOnUse"><stop stop-color="#FFE000"/><stop offset=".409" stop-color="#FFBD00"/><stop offset=".775" stop-color="orange"/><stop offset="1" stop-color="#FF9C00"/></linearGradient><linearGradient id="paint2_linear" x1="44.849" y1="40.277" x2="3.716" y2="81.41" gradientUnits="userSpaceOnUse"><stop stop-color="#FF3A44"/><stop offset="1" stop-color="#C31162"/></linearGradient><linearGradient id="paint3_linear" x1="13.122" y1=".382" x2="31.491" y2="18.751" gradientUnits="userSpaceOnUse"><stop stop-color="#32A071"/><stop offset=".069" stop-color="#2DA771"/><stop offset=".476" stop-color="#15CF74"/><stop offset=".801" stop-color="#06E775"/><stop offset="1" stop-color="#00F076"/></linearGradient></defs></svg>